<?xml version="1.0" standalone="no"?><!DOCTYPE svg PUBLIC "-//W3C//DTD SVG 1.1//EN" "http://www.w3.org/Graphics/SVG/1.1/DTD/svg11.dtd"><svg t="1596709653569" class="icon" viewBox="0 0 1024 1024" version="1.1" xmlns="http://www.w3.org/2000/svg" p-id="7659" xmlns:xlink="http://www.w3.org/1999/xlink" width="64" height="64"><defs><style type="text/css"></style></defs><path d="M497.7664 905.5232 82.944 485.888C27.648 430.592 0 363.52 0 284.4672 0 205.4144 27.648 138.3424 82.944 82.944 138.24 27.648 205.4144 0 284.4672 0c79.0528 0 146.1248 27.648 201.5232 82.944L512 106.7008 538.112 82.944C593.408 27.648 660.5824 0 739.5328 0 818.5856 0 885.76 27.648 941.056 82.944 996.352 138.3424 1024 205.4144 1024 284.4672c0 79.0528-27.648 146.1248-82.944 201.5232L526.2336 905.5232C519.8848 908.6976 515.1744 910.2336 512 910.2336 508.8256 910.2336 504.1152 908.6976 497.7664 905.5232zM284.4672 37.888c-66.3552 0-124.8256 23.6544-175.4112 71.0656C61.6448 159.6416 37.888 218.112 37.888 284.4672c0 66.3552 23.7568 124.8256 71.0656 175.4112L512 865.1776l402.944-405.2992C962.3552 410.9312 986.112 352.3584 986.112 284.4672c0-67.8912-23.7568-126.464-71.0656-175.4112C864.3584 61.6448 805.888 37.888 739.5328 37.888c-66.3552 0-124.8256 23.6544-175.4112 71.0656l-40.2432 37.888c-7.8848 7.9872-15.7696 7.9872-23.7568 0L459.8784 111.4112C410.8288 62.464 352.3584 37.888 284.4672 37.888z" p-id="7660" fill="#707070"></path></svg>