<?xml version="1.0" standalone="no"?><!DOCTYPE svg PUBLIC "-//W3C//DTD SVG 1.1//EN" "http://www.w3.org/Graphics/SVG/1.1/DTD/svg11.dtd"><svg t="1596784757993" class="icon" viewBox="0 0 1024 1024" version="1.1" xmlns="http://www.w3.org/2000/svg" p-id="4318" xmlns:xlink="http://www.w3.org/1999/xlink" width="64" height="64"><defs><style type="text/css"></style></defs><path d="M690.214 130.85a113.394 113.394 0 0 1 11.404 7.272l8.456-11.658a127.496 127.496 0 0 0-12.868-8.2l-6.992 12.586z m-134.258-11.278a11.56 11.56 0 0 1-2.146 0.358l1.032 14.362a26.208 26.208 0 0 0 4.828-0.808l10.496-2.806-3.722-13.912-10.488 2.806z m109.254 1.15a110.58 110.58 0 0 1 12.81 4.298l5.41-13.346a125.196 125.196 0 0 0-14.488-4.86l-3.732 13.908z m-56.736-15.088l3.178 14.044a113.372 113.372 0 0 1 13.354-2.188l-1.482-14.324a128.27 128.27 0 0 0-15.05 2.468z m30.024 11.302c4.5 0.09 9.032 0.452 13.472 1.08l2.016-14.26a126.488 126.488 0 0 0-15.206-1.216l-0.282 14.396z m-58.138-3.888l3.712 13.912 13.912-3.718-3.712-13.912-13.912 3.718z m-138.246-64.618a111.178 111.178 0 0 1 12.896 4.022l5.118-13.462a126.094 126.094 0 0 0-14.574-4.542l-3.44 13.982z m-26.8-3.234c4.5 0 9.046 0.272 13.514 0.808l1.716-14.296a128.28 128.28 0 0 0-15.23-0.912v14.4z m83.746 17.49l-9.6 10.734a111.904 111.904 0 0 1 9.51 9.602l10.828-9.496a126.54 126.54 0 0 0-10.738-10.84z m20.062 22.17l-11.174 9.08 9.08 11.178 11.174-9.08-9.08-11.178z m-51.796-26.84a111.446 111.446 0 0 1 11.54 7.026l8.222-11.816a124.76 124.76 0 0 0-13.04-7.94l-6.722 12.73z m69.956 49.194l-11.174 9.08 6.942 8.548a25.438 25.438 0 0 0 3.276 3.366l9.346-10.954a11.104 11.104 0 0 1-1.438-1.482l-6.952-8.558z m291.394 212.688a112.348 112.348 0 0 1 11.268 7.464l8.662-11.498a125.2 125.2 0 0 0-12.722-8.43l-7.208 12.464z m-20.1-24.644l-5.166 13.444 9.29 3.568c1.304 0.502 2.592 1.024 3.868 1.572l5.682-13.232a131.772 131.772 0 0 0-4.378-1.782l-9.296-3.57z m70.826 54.208l-12.216 7.632a111.84 111.84 0 0 1 6.46 11.874l13.04-6.098a126.148 126.148 0 0 0-7.284-13.408z m-102.874-51.088l13.444 5.164 5.166-13.444-13.444-5.164-5.166 13.444z m83.694 27.406l-10.002 10.36a110.472 110.472 0 0 1 9.126 9.956l11.194-9.056a124.934 124.934 0 0 0-10.318-11.26z m-105.224-139.044l-13.594 4.762a111.91 111.91 0 0 1 3.694 13l14.062-3.084a126.528 126.528 0 0 0-4.162-14.678z m-33.144-50.574l-9.806 10.546a113.996 113.996 0 0 1 9.332 9.788l10.998-9.296a128.368 128.368 0 0 0-10.524-11.038z m42.922 136.894l-14.044 3.202a25.996 25.996 0 0 0 11.208 15.946l7.782-12.116a11.452 11.452 0 0 1-4.946-7.032z m-23.278-113.628l-12.038 7.898a112.74 112.74 0 0 1 6.708 11.726l12.91-6.388a126.878 126.878 0 0 0-7.58-13.236z m20.41 62.258a147.704 147.704 0 0 0-0.394-5.192l-14.334 1.36c0.146 1.542 0.262 3.092 0.346 4.616l0.498 9.452 14.38-0.754-0.496-9.482z m1.256 23.862l-14.382 0.754 0.754 14.38 14.38-0.754-0.752-14.38zM793.064 564.292a58.498 58.498 0 0 1 0.004-63.634l25.776-39.792c12.004-18.528 14.98-41.186 8.17-62.164-6.816-20.986-22.546-37.58-43.166-45.526l-44.244-16.988c-21.482-8.284-36.164-28.502-37.4-51.5l-2.498-47.336c-1.196-22.052-12.126-42.14-29.994-55.114-17.85-12.962-40.312-17.134-61.616-11.452l-45.778 12.236c-22.27 5.932-46.026-1.786-60.528-19.662l-29.9-36.808c-13.876-17.128-34.486-26.956-56.536-26.966h-0.038c-22.064 0-42.692 9.824-56.604 26.96l-29.906 36.818c-14.502 17.874-38.236 25.596-60.472 19.662l-45.838-12.238c-21.314-5.682-43.766-1.512-61.612 11.452-17.868 12.976-28.8 33.062-29.994 55.124l-2.494 47.32c-1.238 23.004-15.918 43.22-37.392 51.502l-44.268 16.996c-20.606 7.954-36.332 24.56-43.148 45.56-6.806 20.974-3.83 43.618 8.166 62.128l25.776 39.798a58.498 58.498 0 0 1-0.004 63.634L11.752 604.086c-12 18.494-14.976 41.14-8.162 62.124 6.82 21.002 22.546 37.596 43.148 45.52l44.254 17.038c21.482 8.288 36.164 28.504 37.4 51.5l2.494 47.336c1.196 22.064 12.136 42.154 30.014 55.122 17.844 12.946 40.284 17.102 61.588 11.4l45.856-12.196c22.204-5.962 45.928 1.758 60.462 19.666l29.902 36.812c13.912 17.138 34.542 26.962 56.604 26.962h0.038c22.05-0.012 42.66-9.838 56.53-26.96l29.91-36.82c14.53-17.906 38.282-25.62 60.524-19.656l45.772 12.188c21.51 5.77 44.114 1.5 62.028-11.704l-8.54-11.592c-14.38 10.596-32.512 14.018-49.77 9.384l-45.772-12.188c-27.722-7.438-57.322 2.184-75.42 24.494l-29.91 36.822a58.176 58.176 0 0 1-45.36 21.632h-0.028a58.278 58.278 0 0 1-45.43-21.64l-29.896-36.812c-18.112-22.32-47.708-31.928-75.364-24.502l-45.848 12.196a58.184 58.184 0 0 1-49.42-9.142 58.3 58.3 0 0 1-24.088-44.236l-2.494-47.334c-1.542-28.656-19.832-53.844-46.602-64.17l-44.264-17.042c-16.528-6.358-29.146-19.674-34.622-36.53-5.466-16.836-3.08-35 6.548-49.844L49.6 572.13c15.638-24.092 15.638-55.22 0.004-79.304l-25.772-39.794a58.25 58.25 0 0 1-6.554-49.854 58.34 58.34 0 0 1 34.626-36.564l44.268-16.996c26.766-10.324 45.056-35.512 46.598-64.176l2.494-47.316a58.334 58.334 0 0 1 24.074-44.24c14.324-10.4 32.344-13.756 49.438-9.192l45.838 12.24c27.716 7.392 57.29-2.222 75.364-24.496L369.88 135.62c11.17-13.752 27.726-21.638 45.43-21.638h0.028a58.184 58.184 0 0 1 45.364 21.64l29.902 36.812c18.07 22.268 47.656 31.89 75.42 24.498l45.782-12.24a58.258 58.258 0 0 1 49.438 9.192 58.332 58.332 0 0 1 24.074 44.23l2.498 47.334c1.542 28.658 19.832 53.846 46.606 64.172l44.25 16.988c16.542 6.38 29.17 19.694 34.64 36.536 5.466 16.832 3.074 35.016-6.558 49.888l-25.772 39.784c-15.638 24.092-15.638 55.22-0.004 79.304l25.78 39.798c4.848 7.466 7.866 15.658 8.972 24.352l14.288-1.824c-1.388-10.854-5.146-21.072-11.18-30.362l-25.774-39.792z" fill="#4B555F" p-id="4319"></path><path d="M305.466 453.87c18.432 0 33.408-14.976 33.408-33.408 0-18.432-14.976-33.456-33.408-33.456s-33.408 15.024-33.408 33.456c0 18.384 14.976 33.408 33.408 33.408z m461.416 127.39c-19.248-29.614-19.248-67.918 0-97.582l25.776-39.792c6.864-10.608 8.592-23.568 4.704-35.568-3.936-12-12.912-21.456-24.72-26.016l-44.254-16.992c-32.928-12.72-55.438-43.68-57.358-78.958l-2.496-47.328c-1.2-22.176-19.44-39.552-41.568-39.552-3.6 0-7.248 0.48-10.8 1.44l-45.84 12.24a89.408 89.408 0 0 1-23.088 3.024c-27.168 0-52.56-12.05-69.646-33.168L447.64 146.194a41.414 41.414 0 0 0-32.304-15.408 41.604 41.604 0 0 0-32.4 15.408l-29.904 36.814c-17.136 21.12-42.48 33.168-69.646 33.168-7.776 0-15.552-1.008-23.088-3.024l-45.838-12.24a42.12 42.12 0 0 0-10.848-1.44c-22.128 0-40.368 17.376-41.566 39.552l-2.496 47.328c-1.92 35.278-24.384 66.238-57.36 78.958l-44.208 16.992c-11.808 4.56-20.832 14.064-24.72 26.064-3.888 12-2.208 24.96 4.656 35.52l25.776 39.792c19.248 29.662 19.248 67.966 0 97.582l-25.776 39.792a41.49 41.49 0 0 0-4.656 35.52c3.888 12 12.912 21.504 24.672 26.062l44.304 17.04c32.928 12.672 55.392 43.678 57.312 78.958l2.496 47.278c1.2 22.176 19.44 39.504 41.52 39.504 3.6 0 7.296-0.48 10.896-1.438l45.792-12.192a90.136 90.136 0 0 1 23.184-3.024c27.12 0 52.462 12.096 69.598 33.168l29.904 36.816a41.604 41.604 0 0 0 32.4 15.408 41.58 41.58 0 0 0 32.352-15.408l29.856-36.816c17.136-21.072 42.528-33.168 69.646-33.168 7.824 0 15.6 1.01 23.136 3.024l45.84 12.192c3.6 0.96 7.248 1.488 10.896 1.488 7.44 0 14.592-2.064 20.88-5.76v-26.926h-33.744v-136.606h33.744V652.06h115.198l36.24-8.592a41.4 41.4 0 0 0-6.72-22.416l-25.782-39.792zM305.466 339.824c44.448 0 80.59 36.192 80.59 80.638 0 44.448-36.144 80.59-80.59 80.59s-80.59-36.192-80.59-80.59c0-44.448 36.144-80.638 80.59-80.638z m-29.568 370.506l-33.456-33.408 310.89-310.89 33.456 33.408-310.89 310.89z m249.26 14.782c-44.448 0-80.59-36.192-80.59-80.638 0-44.4 36.144-80.592 80.59-80.592s80.59 36.192 80.59 80.638c0.002 44.4-36.142 80.592-80.59 80.592z m0-114.046c-18.432 0-33.456 15.024-33.456 33.408 0 18.43 15.024 33.454 33.456 33.454s33.408-15.024 33.408-33.408c0-18.43-14.976-33.454-33.408-33.454z" fill="#FFD351" p-id="4320"></path><path d="M525.142 556.7c-48.412 0-87.796 39.386-87.796 87.798s39.384 87.798 87.796 87.8c48.412 0 87.8-39.384 87.8-87.796 0-48.41-39.39-87.8-87.8-87.802z m0 161.198c-40.472-0.002-73.396-32.93-73.396-73.4s32.924-73.398 73.396-73.398c40.47 0.002 73.4 32.932 73.4 73.402s-32.93 73.396-73.4 73.396z m0-114.018c-22.396 0-40.616 18.22-40.616 40.616 0 22.398 18.22 40.624 40.616 40.624s40.622-18.22 40.622-40.616c-0.002-22.4-18.226-40.624-40.622-40.624z m0 66.84c-14.456 0-26.216-11.762-26.216-26.224 0-14.456 11.76-26.216 26.216-26.216 14.46 0 26.222 11.762 26.222 26.224-0.002 14.454-11.762 26.216-26.222 26.216zM305.46 332.646c-48.412 0-87.796 39.384-87.796 87.796s39.384 87.798 87.796 87.8c48.412 0 87.794-39.384 87.794-87.796 0.002-48.414-39.382-87.8-87.794-87.8z m0 161.196c-40.472-0.002-73.396-32.928-73.396-73.4s32.924-73.396 73.396-73.396c40.47 0 73.396 32.926 73.396 73.4 0 40.472-32.924 73.396-73.396 73.396z m0-114.016c-22.396 0-40.616 18.22-40.616 40.614 0 22.398 18.22 40.624 40.616 40.624s40.616-18.22 40.616-40.616c0.002-22.4-18.218-40.622-40.616-40.622z m0 66.838c-14.456 0-26.216-11.762-26.216-26.224 0-14.454 11.76-26.214 26.216-26.214s26.216 11.764 26.216 26.222c0.002 14.454-11.76 26.216-26.216 26.216zM553.35 355.84L232.28 676.91l43.616 43.612 321.07-321.068-43.616-43.614zM252.644 676.91l300.708-300.708 23.254 23.252-300.708 300.704-23.254-23.248zM664.7 668.872v191.258h108.452v-191.258H664.7z m94.052 176.86H679.1v-162.458h79.654v162.458z" fill="#4B555F" p-id="4321"></path><path d="M695.9 700.072h46.054v128.86H695.9z" fill="#F58E70" p-id="4322"></path><path d="M758.752 670.396v188.212l220.942 52.464V617.93l-220.942 52.466z m206.542 222.456l-192.142-45.624v-165.45l192.142-45.628v256.702z" fill="#4B555F" p-id="4323"></path><path d="M789.954 695.054v138.896l158.542 37.646V657.404z" fill="#71CBDF" p-id="4324"></path><path d="M630.988 712.998v103.008h48.112v-103.008h-48.112z m33.712 88.608h-19.312v-74.208h19.312v74.208zM972.494 712.998h-7.2v103.008h7.2c28.4 0 51.506-23.104 51.506-51.506 0-28.398-23.104-51.502-51.506-51.502z m7.2 87.908v-72.808c17.024 3.36 29.906 18.406 29.906 36.402s-12.88 33.044-29.906 36.406zM711.728 845.732v147.474h9.506c28.626 0 51.918-23.292 51.918-51.92v-95.552h-61.424z m47.024 95.552c0 19.032-14.24 34.798-32.624 37.202v-118.354h32.624v81.152z" fill="#4B555F" p-id="4325"></path><path d="M758.752 843.408v64.016h7.2c18.402 0 34.41-11.814 39.838-29.396l6.042-19.584-53.08-15.036z m33.276 30.372c-2.816 9.138-10.008 15.898-18.876 18.292v-29.62l20.578 5.83-1.702 5.498z" fill="#4B555F" p-id="4326"></path></svg>