<?xml version="1.0" standalone="no"?><!DOCTYPE svg PUBLIC "-//W3C//DTD SVG 1.1//EN" "http://www.w3.org/Graphics/SVG/1.1/DTD/svg11.dtd"><svg t="1597055486051" class="icon" viewBox="0 0 1024 1024" version="1.1" xmlns="http://www.w3.org/2000/svg" p-id="31343" xmlns:xlink="http://www.w3.org/1999/xlink" width="64" height="64"><defs><style type="text/css"></style></defs><path d="M1021.408 604.39c-39.798-63.802-95.372-117.122-160.718-154.196-67.412-38.248-144.25-58.462-222.202-58.462-5.066 0-10.13 0.096-15.184 0.264-16.23-40.462-40.896-77.874-71.902-108.81-61-60.844-142.048-94.354-228.212-94.354-86.154 0-167.208 33.508-228.236 94.354C33.722 344.26 0 425.522 0 511.998c0 86.478 33.722 167.738 94.956 228.814 61.024 60.844 142.078 94.348 228.234 94.348 49.924 0 99.498-11.668 143.922-33.77a452.02 452.02 0 0 0 171.376 33.776c77.952 0 154.788-20.218 222.202-58.466 65.344-37.074 120.92-90.394 160.718-154.196a17.12 17.12 0 0 0 0-18.114zM587.29 394.702c-36.186 4.128-71.728 12.556-105.756 25.164 12.312-36.652 31.902-70.44 57.786-99.578a292.028 292.028 0 0 1 47.97 74.414z m-246.982-171.118c65.086 3.78 126.112 29.066 174.798 72.438-36.216 40.254-61.612 88.588-74.084 141.166a444.656 444.656 0 0 0-24.736 13.006c-22.87 12.976-44.506 27.98-64.724 44.684h-11.254V223.584z m-34.236-0.002v271.296h-92.442c-3.844-74.18-32.636-143.702-82.344-198.884 48.7-43.356 109.718-68.632 174.786-72.412zM107.04 320.254c43.288 48.66 68.516 109.596 72.29 174.624H34.752c3.772-65.03 29.004-125.966 72.288-174.624z m-72.288 208.86h144.578c-3.772 65.03-29.002 125.966-72.29 174.628-43.286-48.66-68.516-109.6-72.288-174.628z m271.32 271.296c-65.068-3.78-126.088-29.054-174.786-72.41 49.708-55.178 78.5-124.704 82.344-198.886h92.442v8.906a452.262 452.262 0 0 0-50.502 66.372 17.12 17.12 0 0 0 0 18.118 452.228 452.228 0 0 0 50.502 66.368v111.532z m-15.638-186.96c16.922-25.626 36.67-49.27 58.7-70.538v141.078c-22.03-21.272-41.78-44.916-58.7-70.54z m49.874 186.96v-78c23.36 20.618 48.808 38.878 75.978 54.296 3.23 1.832 6.5 3.586 9.774 5.336a290.418 290.418 0 0 1-85.752 18.368z m553.3-86.728a417.584 417.584 0 0 1-49.812 33.248c-62.272 35.332-133.266 54.006-205.308 54.006s-143.036-18.674-205.308-54.006a416.918 416.918 0 0 1-49.81-33.248v-200.46a416.356 416.356 0 0 1 49.81-33.248c62.272-35.328 133.266-54.006 205.308-54.006 72.04 0 143.036 18.674 205.308 54.006a416.634 416.634 0 0 1 49.812 33.25v200.458z m34.234-29.696v-141.076c22.03 21.27 41.776 44.912 58.7 70.536-16.922 25.628-36.668 49.272-58.7 70.54z" p-id="31344" fill="#707070"></path><path d="M854.134 596.332h-33.046v-23.81a17.118 17.118 0 0 0-34.236 0v23.81h-48.508v-23.81a17.118 17.118 0 0 0-34.236 0v23.81h-48.504v-23.81a17.118 17.118 0 0 0-34.236 0v23.81h-48.504v-23.81a17.118 17.118 0 0 0-34.236 0v23.81H490.12v-23.81a17.118 17.118 0 0 0-34.236 0v23.81H422.84a17.118 17.118 0 0 0 0 34.236h33.046v23.808a17.118 17.118 0 0 0 34.236 0v-23.808h48.508v23.808a17.118 17.118 0 0 0 34.236 0v-23.808h48.504v23.808a17.118 17.118 0 0 0 34.236 0v-23.808h48.504v23.808a17.118 17.118 0 0 0 34.236 0v-23.808h48.506v23.808a17.118 17.118 0 0 0 34.236 0v-23.808h33.046a17.118 17.118 0 0 0 0-34.236z" p-id="31345" fill="#707070"></path></svg>