<?xml version="1.0" standalone="no"?><!DOCTYPE svg PUBLIC "-//W3C//DTD SVG 1.1//EN" "http://www.w3.org/Graphics/SVG/1.1/DTD/svg11.dtd"><svg t="1597054006709" class="icon" viewBox="0 0 1024 1024" version="1.1" xmlns="http://www.w3.org/2000/svg" p-id="24014" xmlns:xlink="http://www.w3.org/1999/xlink" width="64" height="64"><defs><style type="text/css"></style></defs><path d="M1006.8992 546.0992C1018.2656 546.0992 1024 551.8336 1024 563.2L1024 614.4c0 19.8656-6.3488 36.2496-19.1488 49.0496C991.9488 676.2496 975.6672 682.7008 955.6992 682.7008L68.3008 682.7008c-19.8656 0-36.2496-6.3488-49.0496-19.1488C6.3488 650.6496 0 634.2656 0 614.4L0 563.2c0-11.3664 5.7344-17.1008 17.1008-17.1008l51.2 0L68.3008 68.3008c0-19.8656 6.3488-36.2496 19.1488-49.0496C100.2496 6.3488 116.6336 0 136.4992 0l750.8992 0c19.8656 0 36.2496 6.3488 49.0496 19.2512 12.8 12.8 19.1488 29.184 19.1488 49.0496l0 477.9008L1006.8992 546.2016zM989.9008 580.3008 34.0992 580.3008 34.0992 614.4c0 22.7328 11.3664 34.0992 34.0992 34.0992l887.5008 0c22.7328 0 34.0992-11.3664 34.0992-34.0992L989.7984 580.3008zM102.4 546.0992l819.2 0L921.6 68.3008c0-22.7328-11.3664-34.0992-34.0992-34.0992L136.4992 34.2016C113.7664 34.0992 102.4 45.4656 102.4 68.3008L102.4 546.0992zM870.4 512l-716.8 0C142.2336 512 136.4992 506.2656 136.4992 494.8992l0-409.6c0-11.3664 5.7344-17.1008 17.1008-17.1008l716.8 0c11.3664 0 17.1008 5.7344 17.1008 17.1008l0 409.6C887.5008 506.2656 881.7664 512 870.4 512zM170.7008 477.9008l682.7008 0L853.4016 102.4 170.7008 102.4 170.7008 477.9008z" p-id="24015" fill="#707070"></path></svg>