<?xml version="1.0" standalone="no"?><!DOCTYPE svg PUBLIC "-//W3C//DTD SVG 1.1//EN" "http://www.w3.org/Graphics/SVG/1.1/DTD/svg11.dtd"><svg t="1597054196823" class="icon" viewBox="0 0 1027 1024" version="1.1" xmlns="http://www.w3.org/2000/svg" p-id="24729" xmlns:xlink="http://www.w3.org/1999/xlink" width="64.1875" height="64"><defs><style type="text/css"></style></defs><path d="M706.830569 770.809756h-384.62439a64.593171 64.593171 0 0 1-64.520325-64.520325V321.675447a64.593171 64.593171 0 0 1 64.520325-64.520325h384.62439a64.593171 64.593171 0 0 1 64.520325 64.520325V706.289431a64.593171 64.593171 0 0 1-64.520325 64.520325z m-384.62439-472.028618a22.894309 22.894309 0 0 0-22.894309 22.894309V706.289431a22.894309 22.894309 0 0 0 22.894309 22.894309h384.62439a22.894309 22.894309 0 0 0 22.894309-22.894309V321.675447a22.894309 22.894309 0 0 0-22.894309-22.894309z" fill="#707070" p-id="24730"></path><path d="M741.733984 892.878049H156.440976a20.813008 20.813008 0 0 1-20.813009-20.813008V277.041951a20.813008 20.813008 0 0 1 6.098212-14.714797L262.868293 141.185041a20.813008 20.813008 0 0 1 14.714796-6.098212h595.012683a20.813008 20.813008 0 0 1 20.813008 20.813008v585.293009a20.813008 20.813008 0 0 1-6.098211 14.725203L756.459187 886.769431a20.813008 20.813008 0 0 1-14.725203 6.108618z m-564.48-41.626016h555.863414l118.634147-118.634147V176.712846H286.178862L177.253984 285.658537z" fill="#707070" p-id="24731"></path><path d="M350.334959 0m20.813008 0l1.581789 0q20.813008 0 20.813008 20.813008l0 131.205203q0 20.813008-20.813008 20.813009l-1.581789 0q-20.813008 0-20.813008-20.813009l0-131.205203q0-20.813008 20.813008-20.813008Z" fill="#707070" p-id="24732"></path><path d="M473.475122 0m20.813008 0l1.581789 0q20.813008 0 20.813008 20.813008l0 131.205203q0 20.813008-20.813008 20.813009l-1.581789 0q-20.813008 0-20.813008-20.813009l0-131.205203q0-20.813008 20.813008-20.813008Z" fill="#707070" p-id="24733"></path><path d="M596.615285 0m20.813008 0l1.581788 0q20.813008 0 20.813008 20.813008l0 131.205203q0 20.813008-20.813008 20.813009l-1.581788 0q-20.813008 0-20.813008-20.813009l0-131.205203q0-20.813008 20.813008-20.813008Z" fill="#707070" p-id="24734"></path><path d="M350.334959 851.16878m20.813008 0l1.581789 0q20.813008 0 20.813008 20.813009l0 131.205203q0 20.813008-20.813008 20.813008l-1.581789 0q-20.813008 0-20.813008-20.813008l0-131.205203q0-20.813008 20.813008-20.813009Z" fill="#707070" p-id="24735"></path><path d="M473.475122 851.16878m20.813008 0l1.581789 0q20.813008 0 20.813008 20.813009l0 131.205203q0 20.813008-20.813008 20.813008l-1.581789 0q-20.813008 0-20.813008-20.813008l0-131.205203q0-20.813008 20.813008-20.813009Z" fill="#707070" p-id="24736"></path><path d="M596.615285 851.16878m20.813008 0l1.581788 0q20.813008 0 20.813008 20.813009l0 131.205203q0 20.813008-20.813008 20.813008l-1.581788 0q-20.813008 0-20.813008-20.813008l0-131.205203q0-20.813008 20.813008-20.813009Z" fill="#707070" p-id="24737"></path><path d="M854.290732 653.861463m0-20.813008l0-1.581788q0-20.813008 20.813008-20.813008l131.205203 0q20.813008 0 20.813008 20.813008l0 1.581788q0 20.813008-20.813008 20.813008l-131.205203 0q-20.813008 0-20.813008-20.813008Z" fill="#707070" p-id="24738"></path><path d="M854.290732 530.721301m0-20.813008l0-1.581789q0-20.813008 20.813008-20.813008l131.205203 0q20.813008 0 20.813008 20.813008l0 1.581789q0 20.813008-20.813008 20.813008l-131.205203 0q-20.813008 0-20.813008-20.813008Z" fill="#707070" p-id="24739"></path><path d="M854.290732 407.581138m0-20.813008l0-1.581789q0-20.813008 20.813008-20.813008l131.205203 0q20.813008 0 20.813008 20.813008l0 1.581789q0 20.813008-20.813008 20.813008l-131.205203 0q-20.813008 0-20.813008-20.813008Z" fill="#707070" p-id="24740"></path><path d="M0 653.861463m0-20.813008l0-1.581788q0-20.813008 20.813008-20.813008l131.205203 0q20.813008 0 20.813009 20.813008l0 1.581788q0 20.813008-20.813009 20.813008l-131.205203 0q-20.813008 0-20.813008-20.813008Z" fill="#707070" p-id="24741"></path><path d="M0 530.721301m0-20.813008l0-1.581789q0-20.813008 20.813008-20.813008l131.205203 0q20.813008 0 20.813009 20.813008l0 1.581789q0 20.813008-20.813009 20.813008l-131.205203 0q-20.813008 0-20.813008-20.813008Z" fill="#707070" p-id="24742"></path><path d="M0 407.581138m0-20.813008l0-1.581789q0-20.813008 20.813008-20.813008l131.205203 0q20.813008 0 20.813009 20.813008l0 1.581789q0 20.813008-20.813009 20.813008l-131.205203 0q-20.813008 0-20.813008-20.813008Z" fill="#707070" p-id="24743"></path></svg>