<?xml version="1.0" standalone="no"?><!DOCTYPE svg PUBLIC "-//W3C//DTD SVG 1.1//EN" "http://www.w3.org/Graphics/SVG/1.1/DTD/svg11.dtd"><svg t="1597055452157" class="icon" viewBox="0 0 1024 1024" version="1.1" xmlns="http://www.w3.org/2000/svg" p-id="30309" xmlns:xlink="http://www.w3.org/1999/xlink" width="64" height="64"><defs><style type="text/css"></style></defs><path d="M870.4 187.733333h-62.577778c-11.377778 0-17.066667 5.688889-22.755555 17.066667l-73.955556 210.488889H517.688889L381.155556 164.977778c5.688889 0 11.377778 0 17.066666-5.688889 11.377778 0 22.755556-17.066667 17.066667-28.444445 0-11.377778-11.377778-17.066667-28.444445-17.066666-147.911111 28.444444-261.688889 164.977778-261.688888 318.577778v11.377777c0 159.288889 147.911111 307.2 307.2 307.2 125.155556 0 238.933333-91.022222 290.133333-204.8 0-5.688889 5.688889-17.066667 5.688889-22.755555l96.711111-278.755556h45.511111c11.377778 0 22.755556-11.377778 22.755556-22.755555s-5.688889-34.133333-22.755556-34.133334z m-534.755556-5.688889l125.155556 233.244445h-284.444444c5.688889-102.4 68.266667-193.422222 159.288888-233.244445z m352.711112 324.266667l-5.688889 11.377778c-39.822222 96.711111-142.222222 182.044444-244.622223 182.044444-125.155556 0-244.622222-113.777778-261.688888-238.933333h517.688888c0 17.066667-5.688889 28.444444-5.688888 45.511111zM676.977778 745.244444c-45.511111 0-85.333333 39.822222-85.333334 85.333334s39.822222 85.333333 85.333334 85.333333 85.333333-39.822222 85.333333-85.333333c0-51.2-39.822222-85.333333-85.333333-85.333334z m0 119.466667c-17.066667 0-34.133333-17.066667-34.133334-34.133333s17.066667-34.133333 34.133334-34.133334 34.133333 17.066667 34.133333 34.133334-17.066667 34.133333-34.133333 34.133333zM261.688889 745.244444c-45.511111 0-85.333333 39.822222-85.333333 85.333334s39.822222 85.333333 85.333333 85.333333c45.511111-5.688889 79.644444-45.511111 79.644444-91.022222s-34.133333-79.644444-79.644444-79.644445z m0 119.466667c-17.066667 0-34.133333-17.066667-34.133333-34.133333s17.066667-34.133333 34.133333-34.133334 34.133333 17.066667 34.133333 34.133334-17.066667 34.133333-34.133333 34.133333z" fill="#707070" p-id="30310"></path></svg>