<?xml version="1.0" standalone="no"?><!DOCTYPE svg PUBLIC "-//W3C//DTD SVG 1.1//EN" "http://www.w3.org/Graphics/SVG/1.1/DTD/svg11.dtd"><svg t="1597055388037" class="icon" viewBox="0 0 1024 1024" version="1.1" xmlns="http://www.w3.org/2000/svg" p-id="28049" xmlns:xlink="http://www.w3.org/1999/xlink" width="64" height="64"><defs><style type="text/css"></style></defs><path d="M985.31 942.468l-25.702-359.784a75.916 75.916 0 0 0-21.862-48.142c0.644-1.894 0.98-3.928 0.91-6.046-0.038-1.142-0.134-3.224-0.308-6.184a584.586 584.586 0 0 0-1.248-16.744c-1.576-17.894-4-37.798-7.452-59.216-9.866-61.232-25.998-122.494-49.896-179.85C810.666 100.702 691.502 0 511.996 0S213.326 100.702 144.242 266.502c-23.898 57.356-40.03 118.618-49.896 179.85-3.45 21.42-5.876 41.324-7.452 59.216a577.394 577.394 0 0 0-1.248 16.744c-0.174 2.96-0.27 5.042-0.308 6.184a16.994 16.994 0 0 0 0.91 6.046 75.854 75.854 0 0 0-21.856 48.146l-25.702 359.78C35.544 986.532 70.436 1024 114.612 1024h794.778c44.174 0 79.064-37.468 75.92-81.532zM563.196 665.6H460.792a17.066 17.066 0 0 0-17.066 17.066v51.2H179.196c-42.202 0-76.8-34.598-76.8-76.8V614.4a17.004 17.004 0 0 0-5.174-12.228l1.218-17.054c1.564-21.97 19.844-38.984 41.874-38.984h743.372c22.024 0 40.296 17.012 41.874 38.99l1.218 17.042a17.006 17.006 0 0 0-5.182 12.234v42.666c0 44.522-28.23 76.8-68.266 76.8H580.264v-51.2a17.068 17.068 0 0 0-17.068-17.066z m-85.336 85.4l0.004-0.068v-51.2h68.264v102.4H477.86V751zM120.898 508.564c1.506-17.106 3.832-36.202 7.148-56.784 9.468-58.768 24.936-117.506 47.704-172.15C240 125.432 348.036 34.134 511.996 34.134s271.996 91.298 336.246 245.498c22.768 54.644 38.236 113.382 47.704 172.15 3.316 20.58 5.642 39.676 7.148 56.784a587.2 587.2 0 0 1 0.504 6.092 76.158 76.158 0 0 0-19.914-2.658H140.314c-6.884 0-13.56 0.936-19.92 2.658 0.152-1.952 0.316-3.962 0.504-6.094z m788.49 481.302H114.612c-24.366 0-43.608-20.662-41.874-44.968l15.992-223.848C108.868 749.406 141.94 768 179.196 768h264.53v51.2a17.066 17.066 0 0 0 17.066 17.066h102.4a17.066 17.066 0 0 0 17.066-17.066V768h273.07c35.082 0 64.14-16.61 82.232-42.878l15.7 219.778c1.738 24.304-17.504 44.966-41.872 44.966z" p-id="28050" fill="#707070"></path></svg>