<?xml version="1.0" standalone="no"?><!DOCTYPE svg PUBLIC "-//W3C//DTD SVG 1.1//EN" "http://www.w3.org/Graphics/SVG/1.1/DTD/svg11.dtd"><svg t="1597055541551" class="icon" viewBox="0 0 1024 1024" version="1.1" xmlns="http://www.w3.org/2000/svg" p-id="31659" xmlns:xlink="http://www.w3.org/1999/xlink" width="64" height="64"><defs><style type="text/css"></style></defs><path d="M807.822222 455.111111c0-204.8-142.222222-369.777778-312.888889-369.777778S182.044444 250.311111 182.044444 455.111111c0 193.422222 125.155556 352.711111 284.444445 369.777778v113.777778c0 17.066667 11.377778 28.444444 28.444444 28.444444s28.444444-11.377778 28.444445-28.444444v-113.777778c159.288889-17.066667 284.444444-176.355556 284.444444-369.777778z m-307.2 312.888889C358.4 768 238.933333 625.777778 238.933333 455.111111s113.777778-312.888889 256-312.888889S750.933333 284.444444 750.933333 455.111111s-113.777778 312.888889-250.311111 312.888889z" fill="#707070" p-id="31660"></path><path d="M500.622222 307.2c-11.377778-11.377778-28.444444-11.377778-39.822222 0L381.155556 392.533333c-11.377778 5.688889-11.377778 28.444444 0 39.822223s28.444444 11.377778 39.822222 0l79.644444-79.644445c11.377778-11.377778 11.377778-34.133333 0-45.511111zM591.644444 403.911111L460.8 534.755556c-11.377778 11.377778-11.377778 28.444444 0 39.822222s28.444444 11.377778 39.822222 0l130.844445-130.844445c11.377778-11.377778 11.377778-28.444444 0-39.822222s-28.444444-11.377778-39.822223 0z" fill="#707070" p-id="31661"></path></svg>