<?xml version="1.0" standalone="no"?><!DOCTYPE svg PUBLIC "-//W3C//DTD SVG 1.1//EN" "http://www.w3.org/Graphics/SVG/1.1/DTD/svg11.dtd"><svg t="1597055565646" class="icon" viewBox="0 0 1024 1024" version="1.1" xmlns="http://www.w3.org/2000/svg" p-id="31888" xmlns:xlink="http://www.w3.org/1999/xlink" width="64" height="64"><defs><style type="text/css"></style></defs><path d="M810.666667 426.666667h-59.733334l-93.866666-183.466667c-21.333333-42.666667-64-72.533333-115.2-72.533333h-98.133334c-8.533333 0-17.066667 8.533333-17.066666 21.333333v42.666667c0 12.8 8.533333 21.333333 21.333333 21.333333h98.133333c17.066667 0 29.866667 8.533333 38.4 25.6l72.533334 145.066667H213.333333c-119.466667 0-213.333333 93.866667-213.333333 213.333333s93.866667 213.333333 213.333333 213.333333c85.333333 0 162.133333-51.2 196.266667-128H307.2c-21.333333 25.6-55.466667 42.666667-93.866667 42.666667-72.533333 0-128-55.466667-128-128s55.466667-128 128-128c55.466667 0 102.4 34.133333 119.466667 85.333333H192c-12.8 0-21.333333 8.533333-21.333333 21.333334v42.666666c0 12.8 8.533333 21.333333 21.333333 21.333334H384c12.8 0 25.6 0 38.4-4.266667 76.8-17.066667 132.266667-85.333333 132.266667-166.4h85.333333c-25.6 34.133333-42.666667 81.066667-42.666667 128 0 119.466667 93.866667 213.333333 213.333334 213.333333s213.333333-93.866667 213.333333-213.333333-93.866667-213.333333-213.333333-213.333333z m0 341.333333c-72.533333 0-128-55.466667-128-128 0-34.133333 12.8-64 34.133333-89.6l42.666667 85.333333c4.266667 12.8 17.066667 17.066667 29.866666 17.066667h51.2c4.266667 0 8.533333-4.266667 12.8-8.533333s4.266667-8.533333 0-12.8L793.6 512h17.066667c72.533333 0 128 55.466667 128 128s-55.466667 128-128 128z" p-id="31889" fill="#707070"></path></svg>