<?xml version="1.0" standalone="no"?><!DOCTYPE svg PUBLIC "-//W3C//DTD SVG 1.1//EN" "http://www.w3.org/Graphics/SVG/1.1/DTD/svg11.dtd"><svg t="1597226162617" class="icon" viewBox="0 0 1024 1024" version="1.1" xmlns="http://www.w3.org/2000/svg" p-id="706" xmlns:xlink="http://www.w3.org/1999/xlink" width="64" height="64"><defs><style type="text/css"></style></defs><path d="M791.920806 484.017692c-28.333302 16.902972-42.704614 41.87062-43.141566 74.928526-0.434905 33.032324-17.138332 49.785893-50.096978 50.221822-32.957623 0.436952-57.876152 14.846126-74.727958 43.255153-16.864086 28.395724-39.664372 34.528398-68.434625 18.385742-28.76923-16.153912-57.526181-16.153912-86.295412 0-28.757974 16.142655-51.569516 10.009981-68.422346-18.385742-16.865109-28.409027-41.770336-42.818201-74.741261-43.255153-32.958646-0.435928-49.649793-17.189498-50.084699-50.221822-0.437975-33.057907-14.821567-58.025555-43.142589-74.928526-28.333302-16.902972-34.441417-39.776935-18.348903-68.607564 16.104793-28.832675 16.104793-57.676607 0-86.509283-16.092513-28.831652-9.985422-51.705616 18.348903-68.608587 28.321022-16.902972 42.704614-41.87062 43.142589-74.928526 0.435928-33.032324 17.126053-49.785893 50.084699-50.209542 32.969902-0.448208 57.876152-14.859429 74.741261-43.266409 16.85283-28.396747 39.664372-34.516118 68.422346-18.386766 28.76923 16.155958 57.526181 16.155958 86.295412 0 28.770254-16.129352 51.570539-10.008958 68.434625 18.386766 16.85283 28.40698 41.770336 42.818201 74.727958 43.266409 32.958646 0.423649 49.662073 17.177218 50.096978 50.209542 0.436952 33.057907 14.809287 58.025555 43.141566 74.928526 28.322046 16.902972 34.43016 39.776935 18.336624 68.608587-16.102746 28.832675-16.102746 57.676607 0 86.509283C826.350966 444.240757 820.242851 467.11472 791.920806 484.017692zM549.922193 251.15618l-40.188304 0c-5.646604 15.779382-16.042371 29.579689-31.199583 41.409109s-29.206182 19.869536-42.132586 24.108071l0 45.036729c24.569582-8.127098 45.921889-20.667715 64.033385-37.632085l0 187.352015 49.487088 0L549.922193 251.15618zM318.618153 623.790062c79.878259 1.744737 54.187133 67.448158 118.91739 69.033259 0-1.74576-125.025505 259.873726-125.025505 259.873726l-60.07012-90.52269-108.597347 12.189623 135.435599-266.853697C279.278169 607.510284 283.89021 623.790062 318.618153 623.790062zM633.026936 672.079882c22.576181-19.146059 2.468215-43.678802 101.44239-54.123688l137.179312 256.407788L764.772492 860.429621l-37.498032 97.490382L574.478472 694.567036C574.478472 694.567036 606.987886 699.928137 633.026936 672.079882z" p-id="707" fill="#597ea8"></path></svg>