<?xml version="1.0" standalone="no"?><!DOCTYPE svg PUBLIC "-//W3C//DTD SVG 1.1//EN" "http://www.w3.org/Graphics/SVG/1.1/DTD/svg11.dtd"><svg t="1597045051451" class="icon" viewBox="0 0 1024 1024" version="1.1" xmlns="http://www.w3.org/2000/svg" p-id="18995" xmlns:xlink="http://www.w3.org/1999/xlink" width="64" height="64"><defs><style type="text/css"></style></defs><path d="M511.131152 3.55814145a31.030303 31.030303 0 0 1 30.81308999 27.399758l0.21721301 3.630545v60.664242C785.128727 110.76783845 977.454545 312.77511145 977.454545 559.68323245v47.290182a31.030303 31.030303 0 0 1-42.542545 28.827151l-73.91418199-29.571879a313.933576 313.933576 0 0 0-232.94448501 0l-69.69406 27.803152 0.186182 3.227151v236.575031a112.484848 112.484848 0 0 1-224.814546 5.95781799l-0.15515099-5.95781799V818.16565645a31.030303 31.030303 0 0 1 61.84339399-3.630545l0.217212 3.630545v55.668364a50.42424199 50.42424199 0 0 0 100.662303 4.344242l0.186181-4.344242v-227.234909l-92.563393-38.105212a319.89139399 319.89139399 0 0 0-237.940364-2.265213l-77.14133299 30.099394A31.030303 31.030303 0 0 1 46.545455 607.40783845V559.68323245C46.545455 313.36468644 237.940364 111.69874745 480.162909 95.34577745l-0.062061-1.08606V34.58844445a31.030303 31.030303 0 0 1 31.030304-31.030303zM512 156.28929245c-222.797576 0-403.393939 180.596364-403.393939 403.39394v2.327273l34.84703-13.591273a381.952 381.952 0 0 1 284.113454 2.699636l84.24727299 34.691879 93.21503001-37.236364a375.99418201 375.99418201 0 0 1 278.962425 0.031031l31.402666 12.536242v-1.458424c0-222.797576-180.596364-403.393939-403.393939-403.39394z m140.598303 86.667637a31.030303 31.030303 0 1 1 43.876849 43.907879l-185.592243 185.592242a93.090909 93.090909 0 0 1-131.661576 0l-75.34157501-75.341576a31.030303 31.030303 0 1 1 43.876848-43.876848l75.341576 75.341576a31.030303 31.030303 0 0 0 43.876848 0l185.62327301-185.623273z" fill="#597ea8" p-id="18996"></path></svg>