<?xml version="1.0" standalone="no"?><!DOCTYPE svg PUBLIC "-//W3C//DTD SVG 1.1//EN" "http://www.w3.org/Graphics/SVG/1.1/DTD/svg11.dtd"><svg t="1597044945153" class="icon" viewBox="0 0 1024 1024" version="1.1" xmlns="http://www.w3.org/2000/svg" p-id="17838" xmlns:xlink="http://www.w3.org/1999/xlink" width="64" height="64"><defs><style type="text/css"></style></defs><path d="M896 64 128 64C64 64 0 124.032 0 188.032L0 256l0 192 0 384c0 64 64 128 128 128l768 0c64 0 128-64 128-128L1024 448 1024 256 1024 188.032C1024 124.032 960 64 896 64zM960 800.256c0 56-56 87.744-112 87.744L176 888c-56 0-112-31.744-112-87.744L64 448l896 0L960 800.256zM64 256 64 220.224c0-56 56-89.6 112-89.6l672 0c56 0 112 33.6 112 89.6L960 256 64 256z" p-id="17839" fill="#597ea8"></path><path d="M192 576l320 0 0 64-320 0 0-64Z" p-id="17840" fill="#597ea8"></path></svg>