<?xml version="1.0" standalone="no"?><!DOCTYPE svg PUBLIC "-//W3C//DTD SVG 1.1//EN" "http://www.w3.org/Graphics/SVG/1.1/DTD/svg11.dtd"><svg t="1597247410113" class="icon" viewBox="0 0 1024 1024" version="1.1" xmlns="http://www.w3.org/2000/svg" p-id="4902" xmlns:xlink="http://www.w3.org/1999/xlink" width="64" height="64"><defs><style type="text/css"></style></defs><path d="M292.55 0v160.63h14.596V14.596h408.428v259.916h14.596V0z" fill="#4A555F" p-id="4903"></path><path d="M546.492 34.124V101.9l-18.684-19.51-16.494 19.51-17.03-19.51-18.05 19.51V34.124h-149.564v147.632l141.244 73.566c27.684 14.402 44.908 42.718 44.908 73.906a82.92 82.92 0 0 1-4.67 27.586h56.196a249.128 249.128 0 0 0 21.214-9.438l1.46-0.682 109.034-45.93V34.124h-149.564z" fill="#F58E6F" p-id="4904"></path><path d="M468.942 0v110.464l25.196-23.89 17.324 17.338 16.668-17.334 25.648 23.488V0h-84.836z m70.24 76.906l-11.698-10.712-16.222 16.868-16.848-16.862-10.876 10.31V14.596h55.644v62.31zM995.11 265.08c-15.252-33.778-53.99-48.966-88.196-34.57L593.182 362.58c-50.228 25.182-96.208 29.53-133.354 25.626a67.286 67.286 0 0 0 5.022-2.882c19.366-12.232 30.928-33.196 30.928-56.076 0-24.814-13.694-47.36-35.736-58.84L235.19 153.332H30.18v14.596h201.438l221.688 115.428c17.196 8.954 27.876 26.54 27.876 45.892 0 17.842-9.018 34.194-24.128 43.736-12.03 7.602-26.322 9.884-39.798 6.636-0.922-0.278-1.834-0.558-2.736-0.84a709.47 709.47 0 0 1-27.63-12.352l-170.91-81.29-6.272 13.18 169.792 80.76 1.122 0.532 20.074 9.548a67.22 67.22 0 0 0 12.814 4.578c43.756 13.092 110.48 19.86 185.772-17.908l313.296-131.866c26.85-11.29 57.264 0.614 69.228 27.124 11.902 26.358 0.818 56.916-25.24 69.57l-365.082 177.266a276.366 276.366 0 0 1-230.388 5.144L55.562 391.238H30.18v14.596h22.37l302.766 130.636a291.096 291.096 0 0 0 115.374 23.852 291.056 291.056 0 0 0 127.172-29.272l365.08-177.266c33.22-16.126 47.35-55.092 32.168-88.704z" fill="#4A555F" p-id="4905"></path><path d="M966.288 278.092c-5.988-13.266-19.334-21.24-33.2-21.24-4.662 0-9.382 0.904-13.9 2.804l-312.57 131.558c-44.688 22.266-86.474 29.906-122.784 29.91-28.788 0-54.13-4.804-74.754-10.938a84.708 84.708 0 0 1-15.694-5.65l-19.676-9.36c-0.504-0.238-1.01-0.476-1.516-0.718l-165.188-78.57-4.608-2.19 20.896-43.94 5.022 2.39 166.232 79.064a702.028 702.028 0 0 0 25.822 11.556c0.53 0.162 1.06 0.328 1.596 0.49a34.18 34.18 0 0 0 7.416 0.818c6.428 0 12.802-1.838 18.578-5.488 10.292-6.5 16.196-17.196 16.196-29.34 0-12.976-7.172-24.774-18.72-30.79L227.454 184.956H30.18v189.254h28.9l4.614 1.99 304.154 131.23a259.514 259.514 0 0 0 102.844 21.262c38.818 0 77.582-8.718 113.356-26.09l365.082-177.266c17.702-8.596 25.242-29.344 17.158-47.244z" fill="#DFDFDF" p-id="4906"></path><path d="M590.572 674.48h0.048a8.268 8.268 0 0 0-0.632-0.73c-0.146-0.194-0.34-0.438-0.488-0.632-6.908-8.514-15.666-17.224-25.008-21.408-0.048-0.048-0.146-0.048-0.194-0.098l-0.048-0.048c-14.792-8.806-31.966-13.77-49.822-13.77-53.812 0-97.552 43.74-97.552 97.554 0 53.812 43.74 97.552 97.552 97.552a98.82 98.82 0 0 0 20.434-2.14s12.31-3.94 23.744-8.466c-9.73-12.992-14.986-28.56-14.986-45.2 0-31.188 17.176-59.504 44.86-73.956l15.91-8.368s-5.4-9.78-13.818-20.29z" fill="#FFD452" p-id="4907"></path><path d="M514.428 606.174c-71.224 0-129.172 57.946-129.172 129.172 0 24.238 6.752 47.862 19.524 68.314l12.382-7.73c-11.322-18.134-17.31-39.084-17.31-60.584 0-63.178 51.396-114.576 114.576-114.576 44.81 0 85.768 26.364 104.342 67.166l13.284-6.048c-20.934-45.994-67.11-75.714-117.626-75.714z" fill="#4A555F" p-id="4908"></path><path d="M554.658 704.49v-0.668a39.962 39.962 0 0 0-11.784-28.446 39.96 39.96 0 0 0-28.442-11.782h-0.004c-22.184 0-40.23 18.046-40.23 40.228v2.456c0 20.728 16.868 37.594 37.598 37.594h5.27c12.682 0 22.998 10.318 22.998 23 0 14.136-11.498 25.634-25.634 25.634-14.136 0-25.634-11.498-25.634-25.634H474.2c0 22.182 18.046 40.23 40.23 40.23 22.184 0 40.23-18.048 40.23-40.23 0-20.73-16.862-37.596-37.594-37.596h-5.27c-12.682 0-23.002-10.316-23.002-22.998v-2.456c0-14.132 11.498-25.632 25.634-25.632h0.004c6.848 0 13.28 2.666 18.122 7.504a25.468 25.468 0 0 1 7.508 18.126v0.668h14.596z" fill="#4A555F" p-id="4909"></path><path d="M507.13 641.068h14.596v29.824h-14.596zM507.13 799.804h14.596v29.822h-14.596z" fill="#4A555F" p-id="4910"></path><path d="M603.146 731.186l189.258-99.892h201.414v-14.596H788.79l-192.418 101.56c-22.046 11.478-35.74 34.024-35.74 58.842 0 20.506 10.448 38.968 28.67 50.65 8.486 5.44 18.002 9.058 27.918 10.814l-7.868 3.624c-41.086 12.914-105.278 20.49-178.972-16.442L117.084 693.878c-34.214-14.406-72.948 0.786-88.2 34.568-15.172 33.614-1.04 72.578 32.172 88.706l366.368 177.888A287.85 287.85 0 0 0 553.232 1024c38.796 0 77.634-7.846 114.13-23.594L971.448 869.2h22.37v-14.596h-25.382l-306.862 132.398a273.22 273.22 0 0 1-227.774-5.088L67.432 804.026c-26.056-12.654-37.142-43.214-25.244-69.572 11.968-26.516 42.388-38.416 69.232-27.124l312.858 131.664c77.866 39.048 146.254 30.784 189.906 16.974l0.85-0.328c0.352-0.162 27.13-12.482 46.812-21.648a84.884 84.884 0 0 0 4.12-1.758l148.326-70.546-6.266-13.182s-121.28 57.58-137.388 65.242c-3.63 1.728-8.8 4.15-14.624 6.864-19.632 7.622-41.822 5.756-58.832-5.148-14.154-9.078-21.952-22.7-21.952-38.362-0.004-19.358 10.682-36.942 27.916-45.916z" fill="#4A555F" p-id="4911"></path><path d="M796.618 648.324l-185.524 97.922c-11.666 6.072-18.838 17.87-18.838 30.852 0 12.382 7.676 19.898 14.114 24.028 7.25 4.646 16.076 7.008 25.066 7.008a51.34 51.34 0 0 0 18.006-3.25c5.52-2.576 10.412-4.866 13.876-6.514 15.876-7.55 133.824-63.55 137.322-65.208l0.064-0.034 0.014-0.004 20.882 43.946-0.014 0.004-0.176 0.086-148.136 70.454a105.24 105.24 0 0 1-4.434 1.906c-19.374 9.028-45.266 20.94-46.69 21.596l-1.38 0.632-1.446 0.456c-21.376 6.766-48.292 12.292-79.158 12.292-36.308 0-78.098-7.646-122.788-29.91l-312.564-131.56a35.828 35.828 0 0 0-13.904-2.804c-13.868 0-27.21 7.968-33.198 21.238-8.08 17.894-0.542 38.648 17.162 47.244l366.364 177.888a256.316 256.316 0 0 0 112 25.776c34.538 0 69.104-6.98 101.596-21l305.474-131.8 4.614-1.99h28.896l0.002-189.254h-197.202z" fill="#DFDFDF" p-id="4912"></path></svg>