<?xml version="1.0" standalone="no"?><!DOCTYPE svg PUBLIC "-//W3C//DTD SVG 1.1//EN" "http://www.w3.org/Graphics/SVG/1.1/DTD/svg11.dtd"><svg t="1597247302574" class="icon" viewBox="0 0 1024 1024" version="1.1" xmlns="http://www.w3.org/2000/svg" p-id="3133" xmlns:xlink="http://www.w3.org/1999/xlink" width="64" height="64"><defs><style type="text/css"></style></defs><path d="M524.34 811.98c0 5.52-4.48 10-10 10h-29.96c-5.52 0-10-4.48-10-10 0-5.54 4.48-10 10-10h29.96c5.52 0 10 4.46 10 10z" fill="#23130D" p-id="3134"></path><path d="M651.54 776.8c-6.92-4.14-15-6.52-23.64-6.54h-26.2v-77.36c0-13.42-5.46-25.58-14.28-34.4s-20.98-14.28-34.4-14.28h-88.58v-52.18c0-5.52-4.48-10-10-10H68.84c-5.52 0-10 4.48-10 10v348.84c0 5.52 4.48 10 10 10h42.62c4.72 25.32 26.96 44.56 53.62 44.56 26.68 0 48.92-19.24 53.62-44.56h250.76c4.7 25.32 26.94 44.56 53.62 44.56 26.66 0 48.9-19.24 53.6-44.56h87.4c5.54 0 10-4.48 10-10v-124.38c0-0.02 0.02-0.02 0.02-0.04 0-16.84-9.06-31.6-22.56-39.66z m-187.1-112.58h88.5c0.02 0 0.04 0.02 0.08 0.02 7.9 0 15.08 3.2 20.26 8.4 5.2 5.2 8.42 12.36 8.42 20.26v77.38h-117.26v-106.06zM111.46 930.88H78.84v-14.58H116.4a54.314 54.314 0 0 0-4.94 14.58z m88.18 10v0.02c0 19.04-15.5 34.54-34.56 34.54-19.04 0-34.54-15.5-34.54-34.56 0-19.06 15.5-34.56 34.54-34.56 19.06 0 34.54 15.5 34.56 34.54v0.02z m-3.16-44.58a54.22 54.22 0 0 0-31.4-9.98c-11.68 0-22.5 3.72-31.38 9.98H78.84V602.04h365.6v294.26H196.48z m272.98 34.58H218.7c-0.96-5.14-2.64-10.04-4.94-14.58h260.62a54.98 54.98 0 0 0-4.92 14.58z m53.62 44.56c-19.06 0-34.56-15.5-34.56-34.56 0-19.06 15.5-34.56 34.56-34.56 19.04 0 34.54 15.5 34.54 34.56 0 19.06-15.5 34.56-34.54 34.56z m31.38-79.14c-8.88-6.26-19.7-9.98-31.38-9.98a54.32 54.32 0 0 0-31.4 9.98h-27.24v-106.02h117.26v106.02h-27.24z m99.62 34.58h-77.4a54.98 54.98 0 0 0-4.92-14.58h19.9c0.02 0 0.02 0.02 0.04 0.02h62.38v14.56z m0-34.58h-52.38v-106.04h26.18l0.02 0.02c5.38 0 10.4 1.64 14.58 4.44 7 4.7 11.6 12.68 11.6 21.74v79.84z" fill="#23130D" p-id="3135"></path><path d="M654.08 916.32v14.56h-77.4a54.98 54.98 0 0 0-4.92-14.58h19.9c0.02 0 0.02 0.02 0.04 0.02h62.38zM116.4 916.3a54.314 54.314 0 0 0-4.94 14.58H78.84v-14.58H116.4zM474.38 916.3a54.98 54.98 0 0 0-4.92 14.58H218.7c-0.96-5.14-2.64-10.04-4.94-14.58h260.62z" fill="#636368" p-id="3136"></path><path d="M557.62 940.88c0 19.06-15.5 34.56-34.54 34.56-19.06 0-34.56-15.5-34.56-34.56 0-19.06 15.5-34.56 34.56-34.56 19.04 0 34.54 15.5 34.54 34.56z" fill="#E1E1E5" p-id="3137"></path><path d="M547.822 940.88c0 13.656-11.104 24.76-24.746 24.76-13.656 0-24.76-11.104-24.76-24.76 0-13.656 11.104-24.76 24.76-24.76 13.642 0 24.746 11.104 24.746 24.76z" opacity=".2" p-id="3138"></path><path d="M199.64 940.86v0.04c0 19.04-15.5 34.54-34.56 34.54-19.04 0-34.54-15.5-34.54-34.56 0-19.06 15.5-34.56 34.54-34.56 19.06 0 34.54 15.5 34.56 34.54zM464.44 790.28v106.02h27.24a54.32 54.32 0 0 1 31.4-9.98c11.68 0 22.5 3.72 31.38 9.98h27.24v-106.02h-117.26z m49.9 31.7h-29.96c-5.52 0-10-4.48-10-10 0-5.54 4.48-10 10-10h29.96c5.52 0 10 4.46 10 10 0 5.52-4.48 10-10 10z" fill="#E1E1E5" p-id="3139"></path><path d="M464.44 790.28v10.54h106.72v95.48h10.54v-106.02h-117.26z" opacity=".2" p-id="3140"></path><path d="M654.08 816.46v79.84h-52.38v-106.04h26.18l0.02 0.02c5.38 0 10.4 1.64 14.58 4.44 7 4.7 11.6 12.68 11.6 21.74z" fill="#E1E1E5" p-id="3141"></path><path d="M654.08 816.46v79.84h-9.12v-70.72c0-9.06-4.6-17.04-11.6-21.74-4.18-2.8-9.2-4.44-14.58-4.44l-0.02-0.02h-17.06v-9.12h26.18l0.02 0.02c5.38 0 10.4 1.64 14.58 4.44 7 4.7 11.6 12.68 11.6 21.74z" opacity=".2" p-id="3142"></path><path d="M581.7 692.9v77.38h-117.26v-106.06h88.5c0.02 0 0.04 0.02 0.08 0.02 7.9 0 15.08 3.2 20.26 8.4 5.2 5.2 8.42 12.36 8.42 20.26z" fill="#3594BF" p-id="3143"></path><path d="M550.98 674.22l0.048 0.02h1.99c4.99 0 9.67 1.938 13.188 5.472a18.546 18.546 0 0 1 5.492 13.188v67.38h-97.26v-86.06h76.542m1.96-10h-88.5v106.06h117.26v-77.38c0-7.9-3.22-15.06-8.42-20.26a28.52 28.52 0 0 0-20.26-8.4c-0.04 0-0.06-0.02-0.08-0.02z" opacity=".2" p-id="3144"></path><path d="M444.44 602.04v294.26H196.48c-1.06-0.74-2.14-1.46-3.26-2.14a52.786 52.786 0 0 0-12.46-5.52 53.628 53.628 0 0 0-15.68-2.32c-3.24 0-6.44 0.28-9.52 0.84-4.46 0.8-8.72 2.12-12.74 3.94-3.22 1.44-6.26 3.18-9.12 5.2H78.84V602.04h365.6z" fill="#F9C139" p-id="3145"></path><path d="M767.222 457.412H233.496c-47.7 0-86.508-38.806-86.508-86.506S185.796 284.4 233.496 284.4h430.598a10 10 0 1 0 0-20H233.496c-58.728 0-106.508 47.778-106.508 106.506s47.78 106.506 106.508 106.506h533.726c98.118 0 177.942 79.824 177.942 177.94s-79.824 177.938-177.942 177.938h-61.934c-5.524 0-10 4.476-10 10s4.476 10 10 10h61.934c109.144 0 197.942-88.794 197.942-197.938 0-109.144-88.796-197.94-197.942-197.94zM797.12 28.56c-63.04 0-114.34 51.3-114.34 114.36 0 23.96 7.32 46.88 21.18 66.3l84.48 148.74a10.026 10.026 0 0 0 8.7 5.06c3.58 0 6.9-1.94 8.68-5.06l84.46-148.7c13.88-19.46 21.22-42.38 21.22-66.34 0-63.06-51.32-114.36-114.38-114.36z m76.82 169.16c-0.28 0.36-0.54 0.76-0.76 1.18l-76.04 133.88-76.06-133.88c-0.18-0.32-0.36-0.62-0.58-0.92-11.6-16.08-17.72-35.14-17.72-55.06 0-52.02 42.32-94.36 94.34-94.36 52.04 0 94.38 42.34 94.38 94.36 0 19.8-6.08 38.74-17.56 54.8z" fill="#23130D" p-id="3146"></path><path d="M797.12 48.56c-14.76 0-28.76 3.42-41.22 9.5a94.244 94.244 0 0 0-27 19.76 94.136 94.136 0 0 0-12.68 16.62 93.36 93.36 0 0 0-8.82 19.32 93.888 93.888 0 0 0-4.62 29.16c0 6.42 0.64 12.76 1.9 18.94a93.048 93.048 0 0 0 15.82 36.12c0.22 0.3 0.4 0.6 0.58 0.92l76.06 133.88 28.42-50.04 13.26-23.34 5.14-9.08 10.2-17.92 10.62-18.7 8.4-14.8c0.22-0.42 0.48-0.82 0.76-1.18 3.08-4.32 5.78-8.86 8.06-13.56 6.26-12.76 9.5-26.76 9.5-41.24 0-52.02-42.34-94.36-94.38-94.36z m46.56 144.04a67.116 67.116 0 0 1-17.08 12.24 65.574 65.574 0 0 1-21.66 6.46c-2.56 0.3-5.16 0.46-7.8 0.46-2.12 0-4.2-0.1-6.26-0.3-31.54-2.96-56.72-28.14-59.68-59.68-0.2-2.06-0.3-4.14-0.3-6.26 0-2.64 0.16-5.24 0.46-7.8 0.9-7.7 3.14-15 6.48-21.66 3.14-6.34 7.28-12.1 12.22-17.08 8.04-8.12 18.16-14.18 29.46-17.3 5.62-1.56 11.52-2.38 17.62-2.38 36.5 0 66.22 29.7 66.22 66.22 0 6.1-0.82 12-2.38 17.62a66.368 66.368 0 0 1-17.3 29.46z" fill="#EC7063" p-id="3147"></path><path d="M797.12 56.56c47.63 0 86.38 38.74 86.38 86.36 0 18.058-5.53 35.358-15.992 50.042-0.5 0.66-0.95 1.36-1.34 2.086l-69.03 121.536-69.084-121.604a16.04 16.04 0 0 0-1.066-1.68c-10.604-14.698-16.208-32.12-16.208-50.38 0-47.62 38.732-86.36 86.34-86.36m0.02 163.2c40.924 0 74.22-33.304 74.22-74.24 0-40.926-33.294-74.22-74.22-74.22-40.936 0-74.24 33.294-74.24 74.22 0 40.936 33.304 74.24 74.24 74.24m-0.02-171.2c-52.02 0-94.34 42.34-94.34 94.36 0 19.92 6.12 38.98 17.72 55.06 0.22 0.3 0.4 0.6 0.58 0.92l76.06 133.88 76.04-133.88c0.22-0.42 0.48-0.82 0.76-1.18 11.48-16.06 17.56-35 17.56-54.8 0-52.02-42.34-94.36-94.38-94.36z m0.02 163.2c-36.52 0-66.24-29.72-66.24-66.24s29.72-66.22 66.24-66.22c36.5 0 66.22 29.7 66.22 66.22s-29.72 66.24-66.22 66.24z" opacity=".2" p-id="3148"></path><path d="M797.14 79.3c-36.52 0-66.24 29.7-66.24 66.22s29.72 66.24 66.24 66.24c36.5 0 66.22-29.72 66.22-66.24s-29.72-66.22-66.22-66.22z m0 112.46c-25.5 0-46.24-20.74-46.24-46.24 0-25.48 20.74-46.22 46.24-46.22 25.48 0 46.22 20.74 46.22 46.22 0 25.5-20.74 46.24-46.22 46.24z" fill="#23130D" p-id="3149"></path><path d="M189.842 940.88c0 13.656-11.104 24.76-24.746 24.76-13.656 0-24.76-11.104-24.76-24.76 0-13.656 11.104-24.76 24.76-24.76 13.642 0 24.746 11.104 24.746 24.76z" opacity=".2" p-id="3150"></path><path d="M78.84 602.04h2.08v294.26h-2.08zM92.44 602.04h12.74v294.26h-12.74zM117.62 602.04h12.74v294.26h-12.74zM155.56 602.04v285.12c-4.46 0.8-8.72 2.12-12.74 3.94V602.04h12.74zM180.76 602.04v286.6c-4.06-1.24-8.34-2-12.74-2.24V602.04h12.74zM205.96 602.04v294.26h-9.48c-1.06-0.74-2.14-1.46-3.26-2.14V602.04h12.74zM218.4 602.04h12.74v294.26h-12.74zM243.6 602.04h12.74v294.26h-12.74zM268.8 602.04h12.74v294.26h-12.74z" opacity=".1" p-id="3151"></path><path d="M293.06 602.04h12.74v294.26h-12.74zM318.24 602.04h12.74v294.26h-12.74zM343.44 602.04h12.74v294.26h-12.74zM368.64 602.04h12.74v294.26h-12.74zM393.84 602.04h12.74v294.26h-12.74zM419.02 602.04h12.74v294.26h-12.74zM444.44 602.04v294.26h-0.22V602.04h0.22z" opacity=".1" p-id="3152"></path><path d="M544.92 770.28h-20.2L464.44 710v-20.2zM568.3 770.28h-15.54l-88.32-88.32v-15.52zM581.7 741.7v25.8l-103.28-103.28h25.8z" fill="#FFFFFF" opacity=".3" p-id="3153"></path><path d="M838.82 259.4l-13.26 23.34-120.88-120.88c-1.26-6.18-1.9-12.52-1.9-18.94 0-6.1 0.58-12.08 1.7-17.86l26.72 26.72c2.96 31.54 28.14 56.72 59.68 59.68l47.94 47.94zM737.84 116.06a65.132 65.132 0 0 0-6.48 21.66L707.4 113.76a93.36 93.36 0 0 1 8.82-19.32l21.62 21.62zM854.16 232.4l-10.2 17.92-39.02-39.02c7.7-0.9 15-3.14 21.66-6.46l27.56 27.56zM779.52 81.68a66.368 66.368 0 0 0-29.46 17.3l-21.16-21.16c7.72-8.1 16.84-14.82 27-19.76l23.62 23.62zM882 184.16a94.222 94.222 0 0 1-8.06 13.56c-0.28 0.36-0.54 0.76-0.76 1.18l-8.4 14.8-21.1-21.1c8.12-8.04 14.18-18.16 17.3-29.46L882 184.16z" fill="#FFFFFF" opacity=".4" p-id="3154"></path></svg>