<?xml version="1.0" standalone="no"?><!DOCTYPE svg PUBLIC "-//W3C//DTD SVG 1.1//EN" "http://www.w3.org/Graphics/SVG/1.1/DTD/svg11.dtd"><svg t="1597045137374" class="icon" viewBox="0 0 1210 1024" version="1.1" xmlns="http://www.w3.org/2000/svg" p-id="20239" xmlns:xlink="http://www.w3.org/1999/xlink" width="75.625" height="64"><defs><style type="text/css"></style></defs><path d="M548.571429 913.473016c-16.253968 0-30.88254-11.377778-34.946032-27.631746L315.326984 77.206349H243.809524c-20.31746 0-36.571429-16.253968-36.571429-36.571428S223.492063 4.063492 243.809524 4.063492h99.961905c17.066667 0 30.88254 11.377778 34.946031 27.631746l196.673016 801.320635 583.517461-134.907936c19.504762-4.87619 39.009524 7.314286 43.885714 26.819047 4.87619 19.504762-7.314286 39.009524-26.819048 43.885714l-618.463492 143.034921c-4.063492 1.625397-6.501587 1.625397-8.939682 1.625397z" fill="#597ea8" p-id="20240"></path><path d="M546.133333 876.901587m-142.222222 0a142.222222 142.222222 0 1 0 284.444445 0 142.222222 142.222222 0 1 0-284.444445 0Z" fill="#597ea8" p-id="20241"></path><path d="M546.133333 876.901587m-71.51746 0a71.51746 71.51746 0 1 0 143.034921 0 71.51746 71.51746 0 1 0-143.034921 0Z" fill="#597ea8" p-id="20242"></path><path d="M246.247619 252.749206H24.380952c-12.190476 0-21.942857-9.752381-21.942857-21.942857 0-12.190476 9.752381-21.942857 21.942857-21.942857h221.866667c12.190476 0 21.942857 9.752381 21.942857 21.942857 0 12.190476-9.752381 21.942857-21.942857 21.942857zM268.190476 377.904762H75.580952c-12.190476 0-21.942857-9.752381-21.942857-21.942857 0-12.190476 9.752381-21.942857 21.942857-21.942857H268.190476c12.190476 0 21.942857 9.752381 21.942857 21.942857 0 12.190476-9.752381 21.942857-21.942857 21.942857zM303.136508 497.371429H217.803175c-12.190476 0-21.942857-9.752381-21.942858-21.942858 0-12.190476 9.752381-21.942857 21.942858-21.942857h85.333333c12.190476 0 21.942857 9.752381 21.942857 21.942857 0 11.377778-9.752381 21.942857-21.942857 21.942858zM1082.514286 629.028571L694.044444 715.987302c-19.504762 4.063492-39.822222-8.126984-43.885714-27.631746L563.2 299.885714c-4.063492-19.504762 8.126984-39.822222 27.631746-43.885714l388.469841-86.95873c19.504762-4.063492 39.822222 8.126984 43.885715 27.631746L1110.146032 585.142857c4.87619 19.504762-7.314286 39.822222-27.631746 43.885714z" fill="#597ea8" p-id="20243"></path><path d="M872.838095 250.311111l21.130159 94.273016-150.349206 34.133333-33.320635-149.536508 149.536508-34.133333" fill="#597ea8" p-id="20244"></path><path d="M872.838095 250.311111l21.130159 94.273016-150.349206 34.133333-33.320635-149.536508 149.536508-34.133333" fill="#597ea8" p-id="20245"></path></svg>