<?xml version="1.0" standalone="no"?><!DOCTYPE svg PUBLIC "-//W3C//DTD SVG 1.1//EN" "http://www.w3.org/Graphics/SVG/1.1/DTD/svg11.dtd"><svg t="1596775975497" class="icon" viewBox="0 0 1024 1024" version="1.1" xmlns="http://www.w3.org/2000/svg" p-id="3087" xmlns:xlink="http://www.w3.org/1999/xlink" width="64" height="64"><defs><style type="text/css"></style></defs><path d="M935.488 458.336c-1.104 2.448-2.832 4.592-4.96 6.176l-128.304 80.976c-2.784 2.112-6.128 3.232-9.568 3.232-0.784 0-1.584-0.048-2.352-0.176-4.24-0.608-8.032-2.896-10.576-6.368L743.984 488l0.048 240-0.048 0 0 64c0 53.008-42.992 96-96 96l-288 0c-53.008 0-96-42.992-96-96l0-192c0-0.032 0-0.032 0-0.064L263.984 488l-35.76 54.176c-2.528 3.488-6.336 5.76-10.56 6.368-0.784 0.128-1.568 0.176-2.336 0.176-3.44 0-6.816-1.12-9.6-3.232L77.44 464.512c-2.144-1.6-3.856-3.76-4.992-6.208-8.464-18.608 77.696-169.168 126.992-226.992 34.464-40.448 93.712-67.072 176.032-79.136 0.832-0.144 1.648-0.208 2.448-0.208 7.104 0 13.568 5.008 15.376 12.208 8.864 34.944 56.432 51.792 110.688 51.792s101.824-16.864 110.688-51.776c1.808-7.216 8.256-12.192 15.44-12.192 0.8 0 1.6 0.064 2.384 0.192 82.336 12.048 141.568 38.672 176.032 79.12C857.824 289.152 943.984 439.728 935.488 458.336zM784.176 252.08c-27.568-32.352-75.744-54.592-143.36-66.16-19.232 42.208-73.952 62.064-136.832 62.064s-117.632-19.872-136.832-62.08c-67.808 11.68-115.856 33.888-143.36 66.176-43.168 50.64-101.872 159.264-116.72 194.736l104.224 62.784 84.032-112.416 0.192 107.04 0.032 25.04c0.144-0.128 0.304-0.224 0.432-0.336l0 263.056c0 35.344 28.656 64 64 64l288 0c35.344 0 64-28.656 64-64L711.984 528.928c0.144 0.144 0.32 0.224 0.448 0.336l0.032-25.04 0.144-107.12 84.048 112.496 104.208-62.768C886.048 411.376 827.344 302.72 784.176 252.08z" p-id="3088" fill="#8a8a8a"></path></svg>