<?xml version="1.0" standalone="no"?><!DOCTYPE svg PUBLIC "-//W3C//DTD SVG 1.1//EN" "http://www.w3.org/Graphics/SVG/1.1/DTD/svg11.dtd"><svg t="1596775953829" class="icon" viewBox="0 0 1024 1024" version="1.1" xmlns="http://www.w3.org/2000/svg" p-id="2893" xmlns:xlink="http://www.w3.org/1999/xlink" width="64" height="64"><defs><style type="text/css"></style></defs><path d="M512 1024c-174.08 0-283.306667-23.893333-324.266667-75.093333-20.48-23.893333-17.066667-44.373333-17.066666-47.786667v-3.413333c3.413333-3.413333 170.666667-337.92 170.666666-453.973334 0-40.96-13.653333-61.44-27.306666-85.333333-23.893333-37.546667-47.786667-75.093333-23.893334-174.08 3.413333-6.826667 10.24-13.653333 17.066667-13.653333 75.093333 0 167.253333 54.613333 204.8 105.813333C549.546667 225.28 641.706667 170.666667 716.8 170.666667c6.826667 0 13.653333 6.826667 17.066667 13.653333 27.306667 98.986667 3.413333 136.533333-20.48 174.08-17.066667 23.893333-30.72 44.373333-30.72 85.333333 0 116.053333 167.253333 467.626667 170.666666 471.04v3.413334c0 3.413333 3.413333 17.066667-10.24 37.546666-37.546667 44.373333-150.186667 68.266667-331.093333 68.266667z m-307.2-116.053333c0 3.413333 3.413333 10.24 10.24 20.48 20.48 23.893333 85.333333 61.44 296.96 61.44 232.106667 0 290.133333-40.96 303.786667-54.613334 3.413333-3.413333 3.413333-6.826667 3.413333-6.826666-17.066667-40.96-170.666667-365.226667-170.666667-484.693334 0-51.2 17.066667-78.506667 34.133334-105.813333 20.48-30.72 37.546667-58.026667 20.48-133.12-81.92 6.826667-174.08 81.92-174.08 119.466667 0 10.24-6.826667 17.066667-17.066667 17.066666s-17.066667-6.826667-17.066667-17.066666c0-37.546667-92.16-112.64-174.08-119.466667-17.066667 75.093333 0 102.4 20.48 133.12 17.066667 23.893333 34.133333 54.613333 34.133334 105.813333 0 119.466667-153.6 426.666667-170.666667 464.213334z" fill="#8a8a8a" p-id="2894"></path><path d="M512 546.133333c-95.573333 0-160.426667-44.373333-163.84-44.373333-6.826667-6.826667-10.24-17.066667-3.413333-23.893333s17.066667-10.24 23.893333-3.413334c0 0 61.44 40.96 143.36 40.96 81.92 0 143.36-47.786667 143.36-47.786666 6.826667-6.826667 17.066667-3.413333 23.893333 3.413333s3.413333 17.066667-3.413333 23.893333c-3.413333 0-68.266667 51.2-163.84 51.2zM358.4 204.8c-10.24 0-17.066667-6.826667-17.066667-17.066667v-170.666666c0-10.24 6.826667-17.066667 17.066667-17.066667s17.066667 6.826667 17.066667 17.066667v170.666666c0 10.24-6.826667 17.066667-17.066667 17.066667zM665.6 204.8c-10.24 0-17.066667-6.826667-17.066667-17.066667v-170.666666c0-10.24 6.826667-17.066667 17.066667-17.066667s17.066667 6.826667 17.066667 17.066667v170.666666c0 10.24-6.826667 17.066667-17.066667 17.066667z" fill="#8a8a8a" p-id="2895"></path></svg>