<?xml version="1.0" standalone="no"?><!DOCTYPE svg PUBLIC "-//W3C//DTD SVG 1.1//EN" "http://www.w3.org/Graphics/SVG/1.1/DTD/svg11.dtd"><svg t="1597045169936" class="icon" viewBox="0 0 1024 1024" version="1.1" xmlns="http://www.w3.org/2000/svg" p-id="20493" xmlns:xlink="http://www.w3.org/1999/xlink" width="64" height="64"><defs><style type="text/css"></style></defs><path d="M512 455.111111H455.111111v113.777778H341.333333v56.888889h113.777778v113.777778h56.888889v-113.777778h113.777778v-56.888889H512z" fill="#597ea8" p-id="20494"></path><path d="M853.333333 284.444444h-170.666666V170.666667c0-28.444444-28.444444-56.888889-56.888889-56.888889H341.333333c-28.444444 0-56.888889 28.444444-56.888889 56.888889v113.777777H113.777778c-28.444444 0-56.888889 28.444444-56.888889 56.888889v512c0 28.444444 28.444444 56.888889 56.888889 56.888889h739.555555c28.444444 0 56.888889-28.444444 56.888889-56.888889V341.333333c0-28.444444-28.444444-56.888889-56.888889-56.888889zM341.333333 170.666667h284.444445v113.777777H341.333333V170.666667z m512 682.666666H113.777778V341.333333h739.555555v512z" fill="#597ea8" p-id="20495"></path></svg>