<?xml version="1.0" standalone="no"?><!DOCTYPE svg PUBLIC "-//W3C//DTD SVG 1.1//EN" "http://www.w3.org/Graphics/SVG/1.1/DTD/svg11.dtd"><svg t="1597247153795" class="icon" viewBox="0 0 1024 1024" version="1.1" xmlns="http://www.w3.org/2000/svg" p-id="2006" xmlns:xlink="http://www.w3.org/1999/xlink" width="64" height="64"><defs><style type="text/css"></style></defs><path d="M470.24 284.48a173.888 173.888 0 0 0-245.664 0 173.824 173.824 0 0 0 0 245.632l271.488 271.488 271.488-271.488a173.888 173.888 0 0 0 0-245.664 173.824 173.824 0 0 0-245.632 0l-25.856 25.856-25.824-25.824z" fill="#F83B57" p-id="2007"></path><path d="M480 16v64a16 16 0 1 0 32 0v-64a16 16 0 1 0-32 0z m242.144 56.32l-32 55.424a16 16 0 1 0 27.712 16l32-55.424a16 16 0 1 0-27.712-16z m181.536 169.824l-55.424 32a16 16 0 0 0 16 27.712l55.424-32a16 16 0 0 0-16-27.712zM976 480h-64a16 16 0 1 0 0 32h64a16 16 0 1 0 0-32z m-56.32 242.144l-55.424-32a16 16 0 0 0-16 27.712l55.424 32a16 16 0 0 0 16-27.712z m-169.824 181.536l-32-55.424a16 16 0 0 0-27.712 16l32 55.424a16 16 0 0 0 27.712-16zM512 976v-64a16 16 0 1 0-32 0v64a16 16 0 1 0 32 0z m-242.144-56.32l32-55.424a16 16 0 0 0-27.712-16l-32 55.424a16 16 0 0 0 27.712 16zM88.32 749.856l55.424-32a16 16 0 0 0-16-27.712l-55.424 32a16 16 0 0 0 16 27.712zM16 512h64a16 16 0 1 0 0-32h-64a16 16 0 1 0 0 32z m56.32-242.144l55.424 32a16 16 0 1 0 16-27.712l-55.424-32a16 16 0 1 0-16 27.712zM242.144 88.32l32 55.424a16 16 0 1 0 27.712-16l-32-55.424a16 16 0 1 0-27.712 16z" fill="#84EBF1" p-id="2008"></path></svg>